# xmcd
#
# Track frame offsets:
# 150
# 14700
# 26349
# 58041
# 70305
# 103726
# 118614
# 133742
# 150134
# 163159
# 191263
# 204369
# 215804
# 225975
# 238798
# 263598
# 278065
# 290181
# 298891
# 310958
# 322720
#
# Disc length: 4554 seconds
#
#
# Revision: 0
# Processed by: cddbd v1.5.1PL2 Copyright (c) Steve Scherf et al.
# Submitted via: FreeRIP 2.945 
#
DISCID=3511c815
DTITLE=Jerry Clower - Classic Clower Power
DYEAR=2006
DGENRE=Comedy
TTITLE0=Southern Humor
TTITLE1=The Young People Of Today
TTITLE2=How To Back Into Show Business
TTITLE3=Room 411
TTITLE4=A Coon Huntin' Story
TTITLE5=The She Coon Of Women's Lib
TTITLE6=The Maddest Man I Ever Saw
TTITLE7=My Pet Peeve
TTITLE8=All About Clovis Ledbetter
TTITLE9=Ole Slantface
TTITLE10=Bird Huntin' At Uncle Versie's
TTITLE11=Marcel Ledbetter Moving Company
TTITLE12=Wanna Buy A Possum
TTITLE13=Seein' Eye Dog
TTITLE14=Crack. W. L.And Rover
TTITLE15=A New Bull
TTITLE16=Second Down And Goal To Go
TTITLE17=Brother Sonny Goes To Church
TTITLE18=Where Will You Be When You Get Where You're Goin'
TTITLE19=The New Fad
TTITLE20=The Resort Hotel
EXTD=MCA Nashville
EXTT0=
EXTT1=
EXTT2=
EXTT3=
EXTT4=
EXTT5=
EXTT6=
EXTT7=
EXTT8=
EXTT9=
EXTT10=
EXTT11=
EXTT12=
EXTT13=
EXTT14=
EXTT15=
EXTT16=
EXTT17=
EXTT18=
EXTT19=
EXTT20=
PLAYORDER=
